C:\Users\israe\Dropbox\PhDWork\ExperimentalData\subject9\145\P9S145W05_filtered35.mot
nRows=6
nColumns=28

name C:\Users\israe\Dropbox\PhDWork\ExperimentalData\subject9\145\P9S145W05_filtered35.mot
datacolumns 28
datarows 6
range 1.1250000000 1.1300000000
endheader
time	ground_force_1_vx	ground_force_1_vy	ground_force_1_vz	ground_force_1_px	ground_force_1_py	ground_force_1_pz	ground_moment_1_mx	ground_moment_1_my	ground_moment_1_mz	ground_force_2_vx	ground_force_2_vy	ground_force_2_vz	ground_force_2_px	ground_force_2_py	ground_force_2_pz	ground_moment_2_mx	ground_moment_2_my	ground_moment_2_mz	ground_force_3_vx	ground_force_3_vy	ground_force_3_vz	ground_force_3_px	ground_force_3_py	ground_force_3_pz	ground_moment_3_mx	ground_moment_3_my	ground_moment_3_mz
        1.1250000000	        0.0000000000	        0.0000000000	        0.0000000000	        0.1988394961	        0.0000558755	       -0.3004071324	        0.0000000000	        0.0000000000	       -0.0000000000	       22.2856560453	      906.4652900262	      205.9411096928	        0.2029003516	       -0.0000795827	        0.4543649445	      -77.1896037742	       23.7675496592	      -68.1403790027	       38.6375422132	      537.0891012217	      -27.1716980970	        0.2076431971	        0.0000770316	        1.3583900146	      131.9930781757	       -7.4242075276	       40.3993238453	
        1.1260000000	        0.0000000000	        0.0000000000	        0.0000000000	        0.1988394961	        0.0000558755	       -0.3004071324	        0.0000000000	        0.0000000000	       -0.0000000000	       21.3984892407	      898.3725868679	      206.4109671338	        0.2029003516	       -0.0000795827	        0.4543649445	      -76.9323844720	       23.6855568516	      -67.4395633537	       38.4643239438	      543.0915323362	      -36.7404769825	        0.2076431971	        0.0000770316	        1.3583900146	      132.9064707663	       -6.4967346969	       40.9186047312	
        1.1270000000	        0.0000000000	        0.0000000000	        0.0000000000	        0.1988394961	        0.0000558755	       -0.3004071324	        0.0000000000	        0.0000000000	       -0.0000000000	       20.4867899795	      890.0091359182	      206.8053239538	        0.2029003516	       -0.0000795827	        0.4543649445	      -76.6551126027	       23.5921358435	      -66.7178838624	       38.0803947195	      549.1246743832	      -45.5036345432	        0.2076431971	        0.0000770316	        1.3583900146	      133.8026086208	       -5.5926258407	       41.4500664191	
        1.1280000000	        0.0000000000	        0.0000000000	        0.0000000000	        0.1988394961	        0.0000558755	       -0.3004071324	        0.0000000000	        0.0000000000	       -0.0000000000	       19.5527667841	      881.3944724346	      207.1146972465	        0.2029003516	       -0.0000795827	        0.4543649445	      -76.3575459093	       23.4866682404	      -65.9758446461	       37.4983125754	      555.4536445601	      -53.2868447496	        0.2076431971	        0.0000770316	        1.3583900146	      134.7508606655	       -4.7304171548	       42.0126208108	
        1.1290000000	        0.0000000000	        0.0000000000	        0.0000000000	        0.1988394961	        0.0000558755	       -0.3004071324	        0.0000000000	        0.0000000000	       -0.0000000000	       18.6001456123	      872.5465631893	      207.3299470661	        0.2029003516	       -0.0000795827	        0.4543649445	      -76.0395964754	       23.3685375053	      -65.2144182347	       36.7284679338	      562.2753432118	      -59.9766967086	        0.2076431971	        0.0000770316	        1.3583900146	      135.8034913354	       -3.9231929948	       42.6205157757	
        1.1300000000	        0.0000000000	        0.0000000000	        0.0000000000	        0.1988394961	        0.0000558755	       -0.3004071324	        0.0000000000	        0.0000000000	       -0.0000000000	       17.6334057381	      863.4804947886	      207.4429030964	        0.2029003516	       -0.0000795827	        0.4543649445	      -75.7014337742	       23.2370662637	      -64.4347097544	       35.7803153470	      569.7168668453	      -65.5253120019	        0.2076431971	        0.0000770316	        1.3583900146	      136.9948989726	       -3.1783554677	       43.2829522391	
